#!OML:ASF H:\Dans Jumps\Project 1\Capture day 1\Session 1\subject.ASF
:FULLY-SPECIFIED
:DEGREES
153
root 0.630288 17.4395 -14.1485 5.63315 -1.09054 -1.36639
lowerback 0.0812056 -0.503902 0.104669
upperback 4.10472 -0.735678 1.67514
thorax 4.20162 -0.396958 1.64239
lowerneck -13.2217 0.762846 -1.95652
upperneck 32.9815 1.51411 0.39072
head 13.2516 0.46442 0.721519
rclavicle -1.49089e-014 3.3197e-014
rhumerus -23.9973 -16.2441 -79.5437
rradius 25.097
rwrist 31.1052
rhand -18.5061 -26.3216
rfingers 7.12502
rthumb 7.78187 -56.1584
lclavicle -1.49089e-014 3.3197e-014
lhumerus -20.12 1.02313 86.9255
lradius 18.7955
lwrist 2.90964
lhand -25.5171 -3.36402
lfingers 7.12502
lthumb 1.01217 26.6133
rfemur -16.1492 -1.23673 19.6005
rtibia 27.2289
rfoot -15.2768 -3.1892
rtoes 9.42219
lfemur -15.09 7.66121 -19.3956
ltibia 25.2395
lfoot -13.474 5.21299
ltoes 3.18552
154
root 0.629342 17.4393 -14.149 5.63111 -1.07735 -1.37129
lowerback 0.0860742 -0.503155 0.103036
upperback 4.10752 -0.734768 1.67913
thorax 4.20185 -0.396654 1.64749
lowerneck -13.2231 0.763935 -1.96144
upperneck 32.9756 1.51418 0.39966
head 13.2492 0.465147 0.725869
rclavicle -2.48481e-016 6.36111e-015
rhumerus -23.9733 -16.2324 -79.5474
rradius 25.1104
rwrist 31.0903
rhand -18.5351 -26.3043
rfingers 7.12502
rthumb 7.75388 -56.1421
lclavicle -2.48481e-016 6.36111e-015
lhumerus -20.1084 1.02341 86.9143
lradius 18.8053
lwrist 2.92438
lhand -25.507 -3.32077
lfingers 7.12502
lthumb 1.02187 26.6565
rfemur -16.1486 -1.24411 19.6097
rtibia 27.2304
rfoot -15.2762 -3.1926
rtoes 9.41874
lfemur -15.0979 7.64595 -19.3863
ltibia 25.2519
lfoot -13.4734 5.21685
ltoes 3.176
155
root 0.628422 17.4391 -14.1497 5.63014 -1.06273 -1.37738
lowerback 0.0919649 -0.502434 0.103339
upperback 4.10906 -0.733912 1.68339
thorax 4.20015 -0.396303 1.65179
lowerneck -13.2207 0.763486 -1.96248
upperneck 32.9691 1.51211 0.404716
head 13.2458 0.464925 0.72766
rclavicle -2.13694e-015 1.39149e-014
rhumerus -23.9507 -16.2211 -79.5498
rradius 25.1243
rwrist 31.0716
rhand -18.5596 -26.2911
rfingers 7.12502
rthumb 7.73026 -56.1298
lclavicle -2.13694e-015 1.39149e-014
lhumerus -20.0996 1.02111 86.9039
lradius 18.8165
lwrist 2.93646
lhand -25.4992 -3.28555
lfingers 7.12502
lthumb 1.02939 26.6917
rfemur -16.1497 -1.25404 19.6202
rtibia 27.233
rfoot -15.276 -3.19564
rtoes 9.41307
lfemur -15.1078 7.63107 -19.3761
ltibia 25.2644
lfoot -13.4733 5.21982
ltoes 3.16855
156
root 0.627508 17.4389 -14.1505 5.6303 -1.04845 -1.38323
lowerback 0.0985719 -0.50096 0.104332
upperback 4.11012 -0.732013 1.68662
thorax 4.19748 -0.395381 1.65469
lowerneck -13.2167 0.761564 -1.96317
upperneck 32.9613 1.5068 0.412484
head 13.2415 0.463711 0.729945
rclavicle 8.19987e-015 -1.92821e-014
rhumerus -23.9292 -16.2152 -79.5512
rradius 25.1366
rwrist 31.0542
rhand -18.579 -26.2789
rfingers 7.12502
rthumb 7.71147 -56.1183
lclavicle 8.19987e-015 -1.92821e-014
lhumerus -20.0911 1.01443 86.8933
lradius 18.8273
lwrist 2.94824
lhand -25.4935 -3.25881
lfingers 7.12502
lthumb 1.03496 26.7184
rfemur -16.1523 -1.26326 19.6302
rtibia 27.2362
rfoot -15.276 -3.19802
rtoes 9.42028
lfemur -15.1192 7.61845 -19.3665
ltibia 25.2773
lfoot -13.4748 5.2217
ltoes 3.15852
157
root 0.626577 17.4388 -14.1514 5.63195 -1.03312 -1.38616
lowerback 0.105526 -0.499573 0.103904
upperback 4.10988 -0.730105 1.68802
thorax 4.19326 -0.394457 1.6565
lowerneck -13.2112 0.761096 -1.96661
upperneck 32.9563 1.50221 0.426695
head 13.238 0.463298 0.735358
rclavicle 5.81445e-015 4.37326e-015
rhumerus -23.912 -16.2086 -79.5528
rradius 25.152
rwrist 31.0326
rhand -18.5895 -26.2756
rfingers 7.12502
rthumb 7.70139 -56.1153
lclavicle 5.81445e-015 4.37326e-015
lhumerus -20.0847 1.01562 86.8799
lradius 18.8393
lwrist 2.94958
lhand -25.4876 -3.24314
lfingers 7.12502
lthumb 1.04067 26.7341
rfemur -16.1574 -1.27451 19.6368
rtibia 27.2406
rfoot -15.2763 -3.19752
rtoes 9.43593
lfemur -15.1328 7.60672 -19.3604
ltibia 25.2904
lfoot -13.4759 5.22089
ltoes 3.1532
158
root 0.625656 17.4386 -14.1524 5.63317 -1.01965 -1.38794
lowerback 0.112501 -0.496578 0.103845
upperback 4.11014 -0.726019 1.68805
thorax 4.18946 -0.39241 1.65676
lowerneck -13.2064 0.759624 -1.96831
upperneck 32.9538 1.49556 0.441411
head 13.2358 0.462239 0.740384
rclavicle 0 -8.74653e-015
rhumerus -23.899 -16.2014 -79.5539
rradius 25.1712
rwrist 31.0072
rhand -18.5916 -26.2844
rfingers 7.12502
rthumb 7.69936 -56.1242
lclavicle 0 -8.74653e-015
lhumerus -20.0775 1.01064 86.8676
lradius 18.8482
lwrist 2.95447
lhand -25.4932 -3.24779
lfingers 7.12502
lthumb 1.03526 26.7294
rfemur -16.1633 -1.2848 19.6418
rtibia 27.2461
rfoot -15.2769 -3.19538
rtoes 9.45965
lfemur -15.1457 7.59795 -19.356
ltibia 25.3033
lfoot -13.4777 5.21907
ltoes 3.14655
159
root 0.624666 17.4384 -14.1535 5.63391 -1.00816 -1.38763
lowerback 0.11973 -0.492956 0.101247
upperback 4.11147 -0.721028 1.68737
thorax 4.18663 -0.389996 1.65775
lowerneck -13.2002 0.758033 -1.96538
upperneck 32.9494 1.4888 0.4519
head 13.2325 0.461171 0.742899
rclavicle -8.24956e-015 -8.15017e-015
rhumerus -23.8884 -16.1932 -79.5544
rradius 25.1926
rwrist 30.9854
rhand -18.5889 -26.2952
rfingers 7.12502
rthumb 7.70195 -56.1349
lclavicle -8.24956e-015 -8.15017e-015
lhumerus -20.069 1.01976 86.8516
lradius 18.8565
lwrist 2.94494
lhand -25.4915 -3.24934
lfingers 7.12502
lthumb 1.0369 26.7279
rfemur -16.1703 -1.29085 19.6448
rtibia 27.2532
rfoot -15.2782 -3.19447
rtoes 9.48544
lfemur -15.1582 7.58945 -19.3536
ltibia 25.3161
lfoot -13.4796 5.21821
ltoes 3.14817
160
root 0.623662 17.4381 -14.1547 5.63389 -0.996893 -1.38686
lowerback 0.128531 -0.489118 0.0979728
upperback 4.11372 -0.715746 1.68707
thorax 4.18386 -0.387474 1.65953
lowerneck -13.1987 0.756671 -1.96186
upperneck 32.9492 1.48351 0.459118
head 13.2321 0.460328 0.744325
rclavicle 5.06901e-015 -7.7526e-015
rhumerus -23.8785 -16.1803 -79.5542
rradius 25.2154
rwrist 30.962
rhand -18.5807 -26.3151
rfingers 7.12502
rthumb 7.70985 -56.1545
lclavicle 5.06901e-015 -7.7526e-015
lhumerus -20.0583 1.02736 86.8369
lradius 18.8619
lwrist 2.93942
lhand -25.4947 -3.24752
lfingers 7.12502
lthumb 1.0338 26.7297
rfemur -16.1785 -1.29681 19.6474
rtibia 27.2617
rfoot -15.2792 -3.19426
rtoes 9.50498
lfemur -15.1708 7.58156 -19.3514
ltibia 25.3296
lfoot -13.4825 5.2161
ltoes 3.15329
